<svg xmlns="http://www.w3.org/2000/svg" viewBox="0 0 720 276" role="img" aria-label="Répartition des soldes : la majorité des portefeuilles est concentrée près de zéro, la moyenne est tirée vers le haut par quelques grosses positions">
<rect width="720" height="276" rx="10" fill="#0C1526" stroke="#1E2C46" stroke-width="1"/>
<text x="24" y="34" font-family="Arial, sans-serif" font-size="14" font-weight="bold" fill="#E8ECF4">Médiane et moyenne ne décrivent pas la même chose</text>
<text x="24" y="54" font-family="Arial, sans-serif" font-size="11" fill="#8B96AD">Chaque point représente un portefeuille, placé selon son solde.</text>
<line x1="60" y1="200" x2="680" y2="200" stroke="#1E2C46" stroke-width="1.5"/>
<text x="60" y="222" font-family="Arial, sans-serif" font-size="11" fill="#8B96AD">0</text>
<text x="680" y="222" text-anchor="end" font-family="Arial, sans-serif" font-size="11" fill="#8B96AD">soldes croissants →</text>
<circle cx="63.6" cy="180.7" r="2.0" fill="#2F7DFF" opacity="0.55"/>
<circle cx="67.2" cy="168.7" r="2.0" fill="#2F7DFF" opacity="0.55"/>
<circle cx="95.7" cy="166.4" r="2.0" fill="#2F7DFF" opacity="0.55"/>
<circle cx="64.0" cy="175.7" r="2.0" fill="#2F7DFF" opacity="0.55"/>
<circle cx="65.3" cy="174.0" r="2.0" fill="#2F7DFF" opacity="0.55"/>
<circle cx="68.4" cy="181.8" r="2.0" fill="#2F7DFF" opacity="0.55"/>
<circle cx="60.2" cy="175.4" r="2.0" fill="#2F7DFF" opacity="0.55"/>
<circle cx="65.4" cy="174.5" r="2.0" fill="#2F7DFF" opacity="0.55"/>
<circle cx="70.5" cy="191.4" r="2.0" fill="#2F7DFF" opacity="0.55"/>
<circle cx="81.9" cy="173.5" r="2.0" fill="#2F7DFF" opacity="0.55"/>
<circle cx="60.0" cy="162.2" r="2.0" fill="#2F7DFF" opacity="0.55"/>
<circle cx="61.0" cy="165.8" r="2.0" fill="#2F7DFF" opacity="0.55"/>
<circle cx="60.0" cy="170.7" r="2.0" fill="#2F7DFF" opacity="0.55"/>
<circle cx="83.4" cy="181.6" r="2.0" fill="#2F7DFF" opacity="0.55"/>
<circle cx="74.3" cy="170.5" r="2.0" fill="#2F7DFF" opacity="0.55"/>
<circle cx="60.0" cy="175.4" r="2.0" fill="#2F7DFF" opacity="0.55"/>
<circle cx="103.4" cy="179.9" r="2.0" fill="#2F7DFF" opacity="0.55"/>
<circle cx="101.0" cy="167.2" r="2.0" fill="#2F7DFF" opacity="0.55"/>
<circle cx="71.8" cy="191.3" r="2.0" fill="#2F7DFF" opacity="0.55"/>
<circle cx="69.7" cy="170.0" r="2.0" fill="#2F7DFF" opacity="0.55"/>
<circle cx="60.1" cy="193.0" r="2.0" fill="#2F7DFF" opacity="0.55"/>
<circle cx="60.0" cy="174.8" r="2.0" fill="#2F7DFF" opacity="0.55"/>
<circle cx="66.0" cy="178.6" r="2.0" fill="#2F7DFF" opacity="0.55"/>
<circle cx="60.0" cy="186.6" r="2.0" fill="#2F7DFF" opacity="0.55"/>
<circle cx="60.2" cy="171.7" r="2.0" fill="#2F7DFF" opacity="0.55"/>
<circle cx="60.5" cy="178.1" r="2.0" fill="#2F7DFF" opacity="0.55"/>
<circle cx="60.0" cy="174.3" r="2.0" fill="#2F7DFF" opacity="0.55"/>
<circle cx="63.9" cy="164.5" r="2.0" fill="#2F7DFF" opacity="0.55"/>
<circle cx="63.3" cy="185.8" r="2.0" fill="#2F7DFF" opacity="0.55"/>
<circle cx="86.6" cy="193.6" r="2.0" fill="#2F7DFF" opacity="0.55"/>
<circle cx="65.6" cy="184.4" r="2.0" fill="#2F7DFF" opacity="0.55"/>
<circle cx="71.0" cy="172.3" r="2.0" fill="#2F7DFF" opacity="0.55"/>
<circle cx="65.0" cy="187.5" r="2.0" fill="#2F7DFF" opacity="0.55"/>
<circle cx="72.3" cy="188.6" r="2.0" fill="#2F7DFF" opacity="0.55"/>
<circle cx="63.8" cy="165.0" r="2.0" fill="#2F7DFF" opacity="0.55"/>
<circle cx="60.8" cy="172.9" r="2.0" fill="#2F7DFF" opacity="0.55"/>
<circle cx="105.7" cy="179.9" r="2.0" fill="#2F7DFF" opacity="0.55"/>
<circle cx="105.4" cy="165.5" r="2.0" fill="#2F7DFF" opacity="0.55"/>
<circle cx="86.4" cy="183.5" r="2.0" fill="#2F7DFF" opacity="0.55"/>
<circle cx="75.2" cy="172.7" r="2.0" fill="#2F7DFF" opacity="0.55"/>
<circle cx="61.1" cy="187.6" r="2.0" fill="#2F7DFF" opacity="0.55"/>
<circle cx="60.4" cy="180.2" r="2.0" fill="#2F7DFF" opacity="0.55"/>
<circle cx="60.9" cy="168.2" r="2.0" fill="#2F7DFF" opacity="0.55"/>
<circle cx="60.0" cy="164.7" r="2.0" fill="#2F7DFF" opacity="0.55"/>
<circle cx="79.6" cy="165.8" r="2.0" fill="#2F7DFF" opacity="0.55"/>
<circle cx="62.5" cy="181.7" r="2.0" fill="#2F7DFF" opacity="0.55"/>
<circle cx="87.0" cy="175.3" r="2.0" fill="#2F7DFF" opacity="0.55"/>
<circle cx="62.2" cy="183.9" r="2.0" fill="#2F7DFF" opacity="0.55"/>
<circle cx="100.1" cy="189.6" r="2.0" fill="#2F7DFF" opacity="0.55"/>
<circle cx="87.1" cy="178.1" r="2.0" fill="#2F7DFF" opacity="0.55"/>
<circle cx="60.0" cy="167.2" r="2.0" fill="#2F7DFF" opacity="0.55"/>
<circle cx="60.3" cy="166.8" r="2.0" fill="#2F7DFF" opacity="0.55"/>
<circle cx="94.0" cy="171.2" r="2.0" fill="#2F7DFF" opacity="0.55"/>
<circle cx="64.1" cy="163.6" r="2.0" fill="#2F7DFF" opacity="0.55"/>
<circle cx="103.2" cy="185.1" r="2.0" fill="#2F7DFF" opacity="0.55"/>
<circle cx="62.4" cy="188.6" r="2.0" fill="#2F7DFF" opacity="0.55"/>
<circle cx="60.0" cy="179.6" r="2.0" fill="#2F7DFF" opacity="0.55"/>
<circle cx="70.5" cy="185.2" r="2.0" fill="#2F7DFF" opacity="0.55"/>
<circle cx="80.6" cy="187.1" r="2.0" fill="#2F7DFF" opacity="0.55"/>
<circle cx="60.7" cy="180.8" r="2.0" fill="#2F7DFF" opacity="0.55"/>
<circle cx="60.0" cy="174.0" r="2.0" fill="#2F7DFF" opacity="0.55"/>
<circle cx="61.4" cy="178.2" r="2.0" fill="#2F7DFF" opacity="0.55"/>
<circle cx="100.9" cy="183.9" r="2.0" fill="#2F7DFF" opacity="0.55"/>
<circle cx="79.0" cy="167.1" r="2.0" fill="#2F7DFF" opacity="0.55"/>
<circle cx="60.0" cy="162.6" r="2.0" fill="#2F7DFF" opacity="0.55"/>
<circle cx="60.5" cy="179.5" r="2.0" fill="#2F7DFF" opacity="0.55"/>
<circle cx="60.0" cy="191.6" r="2.0" fill="#2F7DFF" opacity="0.55"/>
<circle cx="60.0" cy="193.0" r="2.0" fill="#2F7DFF" opacity="0.55"/>
<circle cx="82.3" cy="166.1" r="2.0" fill="#2F7DFF" opacity="0.55"/>
<circle cx="60.2" cy="192.7" r="2.0" fill="#2F7DFF" opacity="0.55"/>
<circle cx="67.2" cy="171.3" r="2.0" fill="#2F7DFF" opacity="0.55"/>
<circle cx="63.5" cy="175.7" r="2.0" fill="#2F7DFF" opacity="0.55"/>
<circle cx="60.2" cy="184.1" r="2.0" fill="#2F7DFF" opacity="0.55"/>
<circle cx="76.9" cy="168.7" r="2.0" fill="#2F7DFF" opacity="0.55"/>
<circle cx="60.1" cy="193.4" r="2.0" fill="#2F7DFF" opacity="0.55"/>
<circle cx="71.2" cy="189.7" r="2.0" fill="#2F7DFF" opacity="0.55"/>
<circle cx="60.0" cy="179.4" r="2.0" fill="#2F7DFF" opacity="0.55"/>
<circle cx="62.9" cy="193.2" r="2.0" fill="#2F7DFF" opacity="0.55"/>
<circle cx="60.3" cy="167.5" r="2.0" fill="#2F7DFF" opacity="0.55"/>
<circle cx="60.7" cy="186.4" r="2.0" fill="#2F7DFF" opacity="0.55"/>
<circle cx="101.9" cy="189.5" r="2.0" fill="#2F7DFF" opacity="0.55"/>
<circle cx="82.8" cy="192.5" r="2.0" fill="#2F7DFF" opacity="0.55"/>
<circle cx="61.0" cy="173.9" r="2.0" fill="#2F7DFF" opacity="0.55"/>
<circle cx="91.1" cy="179.7" r="2.0" fill="#2F7DFF" opacity="0.55"/>
<circle cx="60.3" cy="173.8" r="2.0" fill="#2F7DFF" opacity="0.55"/>
<circle cx="62.3" cy="173.0" r="2.0" fill="#2F7DFF" opacity="0.55"/>
<circle cx="87.8" cy="168.2" r="2.0" fill="#2F7DFF" opacity="0.55"/>
<circle cx="71.1" cy="163.3" r="2.0" fill="#2F7DFF" opacity="0.55"/>
<circle cx="60.0" cy="172.1" r="2.0" fill="#2F7DFF" opacity="0.55"/>
<circle cx="104.4" cy="187.6" r="2.0" fill="#2F7DFF" opacity="0.55"/>
<circle cx="60.3" cy="178.8" r="2.0" fill="#2F7DFF" opacity="0.55"/>
<circle cx="60.6" cy="188.3" r="2.0" fill="#2F7DFF" opacity="0.55"/>
<circle cx="80.2" cy="193.7" r="2.0" fill="#2F7DFF" opacity="0.55"/>
<circle cx="61.3" cy="178.9" r="2.0" fill="#2F7DFF" opacity="0.55"/>
<circle cx="60.9" cy="171.1" r="2.0" fill="#2F7DFF" opacity="0.55"/>
<circle cx="60.0" cy="188.3" r="2.0" fill="#2F7DFF" opacity="0.55"/>
<circle cx="60.0" cy="185.3" r="2.0" fill="#2F7DFF" opacity="0.55"/>
<circle cx="68.2" cy="182.9" r="2.0" fill="#2F7DFF" opacity="0.55"/>
<circle cx="60.5" cy="171.7" r="2.0" fill="#2F7DFF" opacity="0.55"/>
<circle cx="69.0" cy="177.3" r="2.0" fill="#2F7DFF" opacity="0.55"/>
<circle cx="61.9" cy="174.3" r="2.0" fill="#2F7DFF" opacity="0.55"/>
<circle cx="63.7" cy="169.8" r="2.0" fill="#2F7DFF" opacity="0.55"/>
<circle cx="100.3" cy="181.4" r="2.0" fill="#2F7DFF" opacity="0.55"/>
<circle cx="64.5" cy="168.7" r="2.0" fill="#2F7DFF" opacity="0.55"/>
<circle cx="67.8" cy="165.0" r="2.0" fill="#2F7DFF" opacity="0.55"/>
<circle cx="89.1" cy="191.2" r="2.0" fill="#2F7DFF" opacity="0.55"/>
<circle cx="60.2" cy="164.2" r="2.0" fill="#2F7DFF" opacity="0.55"/>
<circle cx="60.1" cy="170.9" r="2.0" fill="#2F7DFF" opacity="0.55"/>
<circle cx="93.8" cy="189.8" r="2.0" fill="#2F7DFF" opacity="0.55"/>
<circle cx="84.2" cy="179.5" r="2.0" fill="#2F7DFF" opacity="0.55"/>
<circle cx="60.5" cy="174.0" r="2.0" fill="#2F7DFF" opacity="0.55"/>
<circle cx="60.2" cy="164.9" r="2.0" fill="#2F7DFF" opacity="0.55"/>
<circle cx="77.5" cy="181.9" r="2.0" fill="#2F7DFF" opacity="0.55"/>
<circle cx="97.8" cy="175.8" r="2.0" fill="#2F7DFF" opacity="0.55"/>
<circle cx="60.3" cy="165.9" r="2.0" fill="#2F7DFF" opacity="0.55"/>
<circle cx="99.1" cy="168.5" r="2.0" fill="#2F7DFF" opacity="0.55"/>
<circle cx="90.8" cy="163.8" r="2.0" fill="#2F7DFF" opacity="0.55"/>
<circle cx="69.1" cy="179.2" r="2.0" fill="#2F7DFF" opacity="0.55"/>
<circle cx="62.9" cy="173.2" r="2.0" fill="#2F7DFF" opacity="0.55"/>
<circle cx="60.0" cy="187.4" r="2.0" fill="#2F7DFF" opacity="0.55"/>
<circle cx="60.0" cy="170.9" r="2.0" fill="#2F7DFF" opacity="0.55"/>
<circle cx="100.7" cy="167.8" r="2.0" fill="#2F7DFF" opacity="0.55"/>
<circle cx="60.5" cy="173.5" r="2.0" fill="#2F7DFF" opacity="0.55"/>
<circle cx="75.0" cy="171.0" r="2.0" fill="#2F7DFF" opacity="0.55"/>
<circle cx="60.6" cy="187.2" r="2.0" fill="#2F7DFF" opacity="0.55"/>
<circle cx="84.7" cy="165.2" r="2.0" fill="#2F7DFF" opacity="0.55"/>
<circle cx="68.8" cy="162.6" r="2.0" fill="#2F7DFF" opacity="0.55"/>
<circle cx="60.9" cy="162.7" r="2.0" fill="#2F7DFF" opacity="0.55"/>
<circle cx="60.2" cy="176.8" r="2.0" fill="#2F7DFF" opacity="0.55"/>
<circle cx="76.1" cy="168.7" r="2.0" fill="#2F7DFF" opacity="0.55"/>
<circle cx="60.0" cy="183.7" r="2.0" fill="#2F7DFF" opacity="0.55"/>
<circle cx="60.4" cy="164.9" r="2.0" fill="#2F7DFF" opacity="0.55"/>
<circle cx="67.2" cy="166.6" r="2.0" fill="#2F7DFF" opacity="0.55"/>
<circle cx="87.6" cy="182.8" r="2.0" fill="#2F7DFF" opacity="0.55"/>
<circle cx="69.7" cy="191.4" r="2.0" fill="#2F7DFF" opacity="0.55"/>
<circle cx="60.8" cy="179.9" r="2.0" fill="#2F7DFF" opacity="0.55"/>
<circle cx="94.9" cy="176.4" r="2.0" fill="#2F7DFF" opacity="0.55"/>
<circle cx="60.3" cy="169.4" r="2.0" fill="#2F7DFF" opacity="0.55"/>
<circle cx="60.0" cy="178.4" r="2.0" fill="#2F7DFF" opacity="0.55"/>
<circle cx="60.7" cy="193.1" r="2.0" fill="#2F7DFF" opacity="0.55"/>
<circle cx="63.5" cy="168.1" r="2.0" fill="#2F7DFF" opacity="0.55"/>
<circle cx="60.0" cy="192.0" r="2.0" fill="#2F7DFF" opacity="0.55"/>
<circle cx="60.2" cy="168.4" r="2.0" fill="#2F7DFF" opacity="0.55"/>
<circle cx="61.9" cy="188.5" r="2.0" fill="#2F7DFF" opacity="0.55"/>
<circle cx="67.7" cy="183.3" r="2.0" fill="#2F7DFF" opacity="0.55"/>
<circle cx="60.1" cy="168.8" r="2.0" fill="#2F7DFF" opacity="0.55"/>
<circle cx="61.8" cy="189.5" r="2.0" fill="#2F7DFF" opacity="0.55"/>
<circle cx="91.8" cy="189.2" r="2.0" fill="#2F7DFF" opacity="0.55"/>
<circle cx="103.2" cy="177.5" r="2.0" fill="#2F7DFF" opacity="0.55"/>
<circle cx="72.0" cy="170.8" r="2.0" fill="#2F7DFF" opacity="0.55"/>
<circle cx="234.1" cy="167.1" r="2.4" fill="#2F7DFF" opacity="0.55"/>
<circle cx="202.3" cy="171.9" r="2.4" fill="#2F7DFF" opacity="0.55"/>
<circle cx="114.5" cy="163.7" r="2.4" fill="#2F7DFF" opacity="0.55"/>
<circle cx="106.8" cy="178.2" r="2.4" fill="#2F7DFF" opacity="0.55"/>
<circle cx="106.3" cy="163.6" r="2.4" fill="#2F7DFF" opacity="0.55"/>
<circle cx="310.5" cy="191.2" r="2.4" fill="#2F7DFF" opacity="0.55"/>
<circle cx="237.2" cy="186.9" r="2.4" fill="#2F7DFF" opacity="0.55"/>
<circle cx="331.0" cy="177.1" r="2.4" fill="#2F7DFF" opacity="0.55"/>
<circle cx="106.3" cy="184.7" r="2.4" fill="#2F7DFF" opacity="0.55"/>
<circle cx="217.3" cy="170.7" r="2.4" fill="#2F7DFF" opacity="0.55"/>
<circle cx="175.5" cy="173.6" r="2.4" fill="#2F7DFF" opacity="0.55"/>
<circle cx="246.7" cy="177.3" r="2.4" fill="#2F7DFF" opacity="0.55"/>
<circle cx="140.4" cy="167.0" r="2.4" fill="#2F7DFF" opacity="0.55"/>
<circle cx="345.7" cy="176.1" r="2.4" fill="#2F7DFF" opacity="0.55"/>
<circle cx="109.0" cy="184.0" r="2.4" fill="#2F7DFF" opacity="0.55"/>
<circle cx="191.8" cy="181.8" r="2.4" fill="#2F7DFF" opacity="0.55"/>
<circle cx="248.9" cy="167.0" r="2.4" fill="#2F7DFF" opacity="0.55"/>
<circle cx="306.7" cy="165.2" r="2.4" fill="#2F7DFF" opacity="0.55"/>
<circle cx="248.9" cy="187.3" r="2.4" fill="#2F7DFF" opacity="0.55"/>
<circle cx="238.1" cy="166.8" r="2.4" fill="#2F7DFF" opacity="0.55"/>
<circle cx="267.9" cy="163.0" r="2.4" fill="#2F7DFF" opacity="0.55"/>
<circle cx="312.4" cy="177.2" r="2.4" fill="#2F7DFF" opacity="0.55"/>
<circle cx="146.6" cy="175.7" r="2.4" fill="#2F7DFF" opacity="0.55"/>
<circle cx="232.2" cy="187.6" r="2.4" fill="#2F7DFF" opacity="0.55"/>
<circle cx="307.0" cy="176.9" r="2.4" fill="#2F7DFF" opacity="0.55"/>
<circle cx="295.8" cy="177.9" r="2.4" fill="#2F7DFF" opacity="0.55"/>
<circle cx="392.0" cy="174.6" r="3.4" fill="#2F7DFF" opacity="0.55"/>
<circle cx="448.0" cy="193.1" r="3.4" fill="#2F7DFF" opacity="0.55"/>
<circle cx="487.0" cy="163.0" r="3.4" fill="#2F7DFF" opacity="0.55"/>
<circle cx="523.0" cy="177.5" r="3.4" fill="#2F7DFF" opacity="0.55"/>
<circle cx="566.0" cy="181.2" r="3.4" fill="#2F7DFF" opacity="0.55"/>
<circle cx="601.0" cy="168.4" r="3.4" fill="#2F7DFF" opacity="0.55"/>
<circle cx="638.0" cy="176.0" r="3.4" fill="#2F7DFF" opacity="0.55"/>
<line x1="68" y1="118" x2="68" y2="206" stroke="#2F7DFF" stroke-width="2"/>
<text x="76" y="98" font-family="Arial, sans-serif" font-size="13" font-weight="bold" fill="#2F7DFF">Médiane</text>
<text x="76" y="114" font-family="Arial, sans-serif" font-size="11" fill="#8B96AD">la moitié des portefeuilles est à gauche</text>
<line x1="242" y1="156" x2="242" y2="206" stroke="#D98A4A" stroke-width="2"/>
<text x="250" y="138" font-family="Arial, sans-serif" font-size="13" font-weight="bold" fill="#D98A4A">Moyenne</text>
<text x="250" y="154" font-family="Arial, sans-serif" font-size="11" fill="#8B96AD">tirée vers la droite par quelques positions</text>
<text x="24" y="256" font-family="Arial, sans-serif" font-size="11" fill="#8B96AD">Schéma illustratif. Sur OLX au 20 juillet 2026 : médiane 0,17 token, moyenne 4 302 tokens.</text>
</svg>